<?xml version="1.0" encoding="iso-8859-1"?>
<!-- Uploaded to: SVG Repo, www.svgrepo.com, Generator: SVG Repo Mixer Tools -->
<!DOCTYPE svg PUBLIC "-//W3C//DTD SVG 1.1//EN" "http://www.w3.org/Graphics/SVG/1.1/DTD/svg11.dtd">
<svg fill="#000000" version="1.1" id="Capa_1" xmlns="http://www.w3.org/2000/svg" xmlns:xlink="http://www.w3.org/1999/xlink" 
	 width="800px" height="800px" viewBox="0 0 72.496 72.496"
	 xml:space="preserve">
<g>
	<g>
		<path d="M0.285,51.073l35.562,17.125c0.069,0.034,0.144,0.049,0.217,0.049c0.049,0,0.099-0.006,0.147-0.021l35.938-11.124
			c0.021-0.006,0.035-0.021,0.055-0.028c0.031-0.015,0.062-0.027,0.088-0.05c0.025-0.02,0.049-0.041,0.07-0.063
			c0.021-0.022,0.041-0.045,0.059-0.071c0.02-0.026,0.031-0.06,0.041-0.09c0.014-0.027,0.021-0.056,0.025-0.086
			c0.008-0.033,0.008-0.066,0.006-0.104c0-0.021,0.006-0.038,0.004-0.06l-7-46.75c-0.004-0.029-0.021-0.051-0.029-0.078
			c-0.01-0.033-0.018-0.067-0.033-0.096c-0.014-0.021-0.028-0.037-0.045-0.056c-0.027-0.035-0.055-0.068-0.09-0.095
			c0-0.001-0.002-0.001-0.004-0.002c-0.096-0.072-0.213-0.113-0.338-0.097l-7.117,0.626l-0.467-3.816
			c-0.021-0.175-0.133-0.325-0.295-0.396c-0.162-0.071-0.35-0.052-0.492,0.05L33.867,22.016L9.655,5.832
			C9.475,5.712,9.24,5.72,9.07,5.853L7.75,6.88L4.298,4.345c-0.01-0.008-0.023-0.009-0.034-0.016
			C4.235,4.311,4.204,4.298,4.17,4.286c-0.03-0.011-0.059-0.02-0.09-0.025c-0.014-0.002-0.026-0.01-0.041-0.012
			C4.021,4.248,4.004,4.256,3.986,4.257C3.948,4.258,3.912,4.263,3.875,4.273C3.861,4.277,3.848,4.282,3.834,4.287
			c-0.051,0.018-0.098,0.044-0.142,0.08C3.688,4.371,3.684,4.375,3.679,4.378C3.651,4.402,3.62,4.421,3.597,4.452
			C3.585,4.468,3.583,4.487,3.573,4.503C3.562,4.521,3.556,4.54,3.547,4.559c-0.016,0.038-0.03,0.076-0.036,0.116
			C3.509,4.687,3.501,4.697,3.5,4.71L0,50.585c0,0.003,0.001,0.005,0.001,0.008c-0.002,0.038,0.008,0.072,0.014,0.109
			c0.005,0.026,0.003,0.059,0.012,0.084c0.009,0.024,0.028,0.047,0.041,0.069c0.017,0.031,0.031,0.064,0.055,0.095
			c0.014,0.017,0.034,0.024,0.05,0.041c0.033,0.026,0.064,0.059,0.104,0.077C0.281,51.071,0.283,51.073,0.285,51.073z
			 M60.965,43.734L35.842,58.763l-0.317-7.822l21.006-14.15c0.229-0.153,0.29-0.465,0.137-0.693
			c-0.154-0.229-0.467-0.289-0.693-0.136L35.478,49.767l-0.195-4.803c0.006-0.01,0.017-0.012,0.022-0.021
			c0.036-0.062,0.057-0.127,0.066-0.191l20.453-14.6c0.229-0.16,0.277-0.473,0.117-0.697c-0.161-0.226-0.477-0.276-0.697-0.116
			L35.229,43.624l-0.19-4.688c0.082,0.055,0.173,0.092,0.27,0.092c0.1,0,0.201-0.029,0.288-0.092l19.311-13.628
			c0.229-0.159,0.279-0.471,0.119-0.697c-0.156-0.227-0.471-0.279-0.695-0.121L35.02,38.118c-0.006,0.004-0.008,0.011-0.014,0.015
			l-0.207-5.108c0.025,0.004,0.048,0.018,0.074,0.018c0.1,0,0.201-0.03,0.288-0.091l19.312-13.626
			c0.229-0.159,0.279-0.471,0.119-0.697c-0.156-0.227-0.473-0.279-0.695-0.121L34.758,32.011l-0.161-3.983
			c0.069-0.013,0.14-0.021,0.201-0.063l19.31-13.626c0.228-0.159,0.279-0.471,0.121-0.697c-0.16-0.226-0.476-0.279-0.694-0.121
			L34.551,26.914l-0.164-4.04L56.48,7.143L60.965,43.734z M9.259,6.998c-0.008,0-0.022,0-0.033,0l0.172-0.134l23.989,16.033
			l0.162,4.008L13.884,15.07c-0.236-0.143-0.543-0.066-0.687,0.17c-0.142,0.237-0.065,0.544,0.171,0.686l20.229,12.175l0.159,3.929
			L13.883,20.07c-0.236-0.141-0.543-0.066-0.687,0.17c-0.142,0.237-0.065,0.544,0.171,0.686l20.25,12.188
			c0.058,0.035,0.122,0.042,0.184,0.051l0.203,5.016l-20.12-12.108c-0.236-0.141-0.543-0.066-0.687,0.17
			c-0.142,0.237-0.065,0.544,0.171,0.686l20.25,12.188c0.081,0.049,0.17,0.07,0.258,0.07c0.059,0,0.114-0.021,0.169-0.043
			l0.185,4.57L14.884,32.07c-0.236-0.142-0.544-0.065-0.687,0.17c-0.142,0.237-0.065,0.544,0.171,0.686l19.911,11.983l0.201,4.953
			L14.884,38.07c-0.236-0.143-0.544-0.066-0.687,0.17c-0.142,0.236-0.065,0.544,0.171,0.686l20.16,12.134l0.128,3.164l0.195,4.818
			L9.13,45.202L9.75,7.506C9.756,7.23,9.536,7.002,9.259,6.998z M8.389,45.938l26.25,14.125c0.073,0.039,0.154,0.06,0.237,0.06h0.5
			c0.082,0,0.158-0.023,0.229-0.062c0.009-0.004,0.019-0.002,0.027-0.009l26.126-15.622c0.17-0.104,0.264-0.295,0.238-0.49
			l-3.828-31.24c0.051,0.013,0.102,0.024,0.15,0.019l3.871-0.306l5.385,41.729l-32.155,9.447L4.517,48.568L6.49,9.128l2.284-1.777
			C8.76,7.395,8.753,7.442,8.752,7.491L8.127,45.49C8.124,45.679,8.225,45.851,8.389,45.938z M4.432,5.684l2.497,1.834l-1.235,0.96
			c-0.115,0.089-0.186,0.224-0.192,0.37l-2,40c-0.011,0.199,0.101,0.387,0.28,0.477l31.375,15.25
			c0.068,0.031,0.144,0.049,0.219,0.049c0.047,0,0.095-0.006,0.141-0.021l32.75-9.625c0.234-0.068,0.387-0.299,0.354-0.543
			l-5.5-42.625c-0.035-0.264-0.271-0.452-0.535-0.435l-4.344,0.344c-0.067,0.005-0.133,0.025-0.188,0.053l-0.098-0.778l6.615-0.581
			l6.865,45.859L36.101,67.211L1.026,50.321L4.432,5.684z"/>
	</g>
</g>
</svg>